<svg xmlns="http://www.w3.org/2000/svg" xmlns:xlink="http://www.w3.org/1999/xlink" width="500" zoomAndPan="magnify" viewBox="0 0 375 374.999991" height="500" preserveAspectRatio="xMidYMid meet" version="1.0"><defs><clipPath id="abf6e6b4d9"><path d="M 2.136719 0 L 372.863281 0 L 372.863281 370.726562 L 2.136719 370.726562 Z M 2.136719 0 " clip-rule="nonzero"/></clipPath><clipPath id="c3a70d4a3e"><path d="M 372.863281 185.367188 C 372.863281 287.734375 289.871094 370.726562 187.5 370.726562 C 85.125 370.726562 2.136719 287.734375 2.136719 185.367188 C 2.136719 82.992188 85.125 0 187.5 0 C 289.875 0 372.863281 82.992188 372.863281 185.367188 " clip-rule="nonzero"/></clipPath><linearGradient x1="0" gradientTransform="matrix(0.741456, 0, 0, 0.741453, 2.136045, 0)" y1="0" x2="0" gradientUnits="userSpaceOnUse" y2="499.99997" id="d824c311d3"><stop stop-opacity="1" stop-color="rgb(100%, 66.699219%, 8.999634%)" offset="0"/><stop stop-opacity="1" stop-color="rgb(99.832153%, 66.572571%, 8.964539%)" offset="0.0078125"/><stop stop-opacity="1" stop-color="rgb(99.497986%, 66.320801%, 8.894348%)" offset="0.015625"/><stop stop-opacity="1" stop-color="rgb(99.165344%, 66.069031%, 8.824158%)" offset="0.0234375"/><stop stop-opacity="1" stop-color="rgb(98.831177%, 65.818787%, 8.752441%)" offset="0.03125"/><stop stop-opacity="1" stop-color="rgb(98.497009%, 65.567017%, 8.682251%)" offset="0.0390625"/><stop stop-opacity="1" stop-color="rgb(98.164368%, 65.315247%, 8.612061%)" offset="0.046875"/><stop stop-opacity="1" stop-color="rgb(97.8302%, 65.063477%, 8.54187%)" offset="0.0546875"/><stop stop-opacity="1" stop-color="rgb(97.497559%, 64.811707%, 8.47168%)" offset="0.0625"/><stop stop-opacity="1" stop-color="rgb(97.163391%, 64.559937%, 8.401489%)" offset="0.0703125"/><stop stop-opacity="1" stop-color="rgb(96.829224%, 64.308167%, 8.331299%)" offset="0.078125"/><stop stop-opacity="1" stop-color="rgb(96.496582%, 64.057922%, 8.261108%)" offset="0.0859375"/><stop stop-opacity="1" stop-color="rgb(96.162415%, 63.806152%, 8.190918%)" offset="0.09375"/><stop stop-opacity="1" stop-color="rgb(95.828247%, 63.554382%, 8.120728%)" offset="0.101562"/><stop stop-opacity="1" stop-color="rgb(95.495605%, 63.302612%, 8.050537%)" offset="0.109375"/><stop stop-opacity="1" stop-color="rgb(95.161438%, 63.050842%, 7.980347%)" offset="0.117188"/><stop stop-opacity="1" stop-color="rgb(94.828796%, 62.799072%, 7.90863%)" offset="0.125"/><stop stop-opacity="1" stop-color="rgb(94.494629%, 62.547302%, 7.83844%)" offset="0.132812"/><stop stop-opacity="1" stop-color="rgb(94.160461%, 62.295532%, 7.76825%)" offset="0.140625"/><stop stop-opacity="1" stop-color="rgb(93.82782%, 62.045288%, 7.698059%)" offset="0.148438"/><stop stop-opacity="1" stop-color="rgb(93.493652%, 61.793518%, 7.627869%)" offset="0.15625"/><stop stop-opacity="1" stop-color="rgb(93.159485%, 61.541748%, 7.557678%)" offset="0.164062"/><stop stop-opacity="1" stop-color="rgb(92.826843%, 61.289978%, 7.487488%)" offset="0.171875"/><stop stop-opacity="1" stop-color="rgb(92.492676%, 61.038208%, 7.417297%)" offset="0.179688"/><stop stop-opacity="1" stop-color="rgb(92.160034%, 60.786438%, 7.347107%)" offset="0.1875"/><stop stop-opacity="1" stop-color="rgb(91.825867%, 60.534668%, 7.276917%)" offset="0.195312"/><stop stop-opacity="1" stop-color="rgb(91.491699%, 60.284424%, 7.206726%)" offset="0.203125"/><stop stop-opacity="1" stop-color="rgb(91.159058%, 60.032654%, 7.136536%)" offset="0.210938"/><stop stop-opacity="1" stop-color="rgb(90.82489%, 59.780884%, 7.066345%)" offset="0.21875"/><stop stop-opacity="1" stop-color="rgb(90.490723%, 59.529114%, 6.994629%)" offset="0.226562"/><stop stop-opacity="1" stop-color="rgb(90.158081%, 59.277344%, 6.924438%)" offset="0.234375"/><stop stop-opacity="1" stop-color="rgb(89.823914%, 59.025574%, 6.854248%)" offset="0.242188"/><stop stop-opacity="1" stop-color="rgb(89.491272%, 58.773804%, 6.784058%)" offset="0.25"/><stop stop-opacity="1" stop-color="rgb(89.157104%, 58.52356%, 6.713867%)" offset="0.257812"/><stop stop-opacity="1" stop-color="rgb(88.822937%, 58.27179%, 6.643677%)" offset="0.265625"/><stop stop-opacity="1" stop-color="rgb(88.490295%, 58.02002%, 6.573486%)" offset="0.273438"/><stop stop-opacity="1" stop-color="rgb(88.156128%, 57.76825%, 6.503296%)" offset="0.28125"/><stop stop-opacity="1" stop-color="rgb(87.82196%, 57.516479%, 6.433105%)" offset="0.289062"/><stop stop-opacity="1" stop-color="rgb(87.489319%, 57.264709%, 6.362915%)" offset="0.296875"/><stop stop-opacity="1" stop-color="rgb(87.155151%, 57.012939%, 6.292725%)" offset="0.304687"/><stop stop-opacity="1" stop-color="rgb(86.82251%, 56.761169%, 6.222534%)" offset="0.3125"/><stop stop-opacity="1" stop-color="rgb(86.488342%, 56.510925%, 6.150818%)" offset="0.320313"/><stop stop-opacity="1" stop-color="rgb(86.154175%, 56.259155%, 6.080627%)" offset="0.328125"/><stop stop-opacity="1" stop-color="rgb(85.821533%, 56.007385%, 6.010437%)" offset="0.335938"/><stop stop-opacity="1" stop-color="rgb(85.487366%, 55.755615%, 5.940247%)" offset="0.34375"/><stop stop-opacity="1" stop-color="rgb(85.153198%, 55.503845%, 5.870056%)" offset="0.351562"/><stop stop-opacity="1" stop-color="rgb(84.820557%, 55.252075%, 5.799866%)" offset="0.359375"/><stop stop-opacity="1" stop-color="rgb(84.486389%, 55.000305%, 5.729675%)" offset="0.367188"/><stop stop-opacity="1" stop-color="rgb(84.153748%, 54.750061%, 5.659485%)" offset="0.375"/><stop stop-opacity="1" stop-color="rgb(83.81958%, 54.498291%, 5.589294%)" offset="0.382812"/><stop stop-opacity="1" stop-color="rgb(83.485413%, 54.246521%, 5.519104%)" offset="0.390625"/><stop stop-opacity="1" stop-color="rgb(83.152771%, 53.994751%, 5.448914%)" offset="0.398437"/><stop stop-opacity="1" stop-color="rgb(82.818604%, 53.742981%, 5.378723%)" offset="0.40625"/><stop stop-opacity="1" stop-color="rgb(82.484436%, 53.491211%, 5.308533%)" offset="0.414063"/><stop stop-opacity="1" stop-color="rgb(82.151794%, 53.239441%, 5.236816%)" offset="0.421875"/><stop stop-opacity="1" stop-color="rgb(81.817627%, 52.987671%, 5.166626%)" offset="0.429688"/><stop stop-opacity="1" stop-color="rgb(81.484985%, 52.737427%, 5.096436%)" offset="0.4375"/><stop stop-opacity="1" stop-color="rgb(81.150818%, 52.485657%, 5.026245%)" offset="0.445312"/><stop stop-opacity="1" stop-color="rgb(80.81665%, 52.233887%, 4.956055%)" offset="0.453125"/><stop stop-opacity="1" stop-color="rgb(80.484009%, 51.982117%, 4.885864%)" offset="0.460938"/><stop stop-opacity="1" stop-color="rgb(80.149841%, 51.730347%, 4.815674%)" offset="0.46875"/><stop stop-opacity="1" stop-color="rgb(79.815674%, 51.478577%, 4.745483%)" offset="0.476562"/><stop stop-opacity="1" stop-color="rgb(79.483032%, 51.226807%, 4.675293%)" offset="0.484375"/><stop stop-opacity="1" stop-color="rgb(79.148865%, 50.976562%, 4.605103%)" offset="0.492187"/><stop stop-opacity="1" stop-color="rgb(78.816223%, 50.724792%, 4.534912%)" offset="0.5"/><stop stop-opacity="1" stop-color="rgb(78.482056%, 50.473022%, 4.464722%)" offset="0.507812"/><stop stop-opacity="1" stop-color="rgb(78.147888%, 50.221252%, 4.393005%)" offset="0.515625"/><stop stop-opacity="1" stop-color="rgb(77.815247%, 49.969482%, 4.322815%)" offset="0.523438"/><stop stop-opacity="1" stop-color="rgb(77.481079%, 49.717712%, 4.252625%)" offset="0.53125"/><stop stop-opacity="1" stop-color="rgb(77.146912%, 49.465942%, 4.182434%)" offset="0.539062"/><stop stop-opacity="1" stop-color="rgb(76.81427%, 49.215698%, 4.112244%)" offset="0.546875"/><stop stop-opacity="1" stop-color="rgb(76.480103%, 48.963928%, 4.042053%)" offset="0.554688"/><stop stop-opacity="1" stop-color="rgb(76.147461%, 48.712158%, 3.971863%)" offset="0.5625"/><stop stop-opacity="1" stop-color="rgb(75.813293%, 48.460388%, 3.901672%)" offset="0.570312"/><stop stop-opacity="1" stop-color="rgb(75.479126%, 48.208618%, 3.831482%)" offset="0.578125"/><stop stop-opacity="1" stop-color="rgb(75.146484%, 47.956848%, 3.761292%)" offset="0.585938"/><stop stop-opacity="1" stop-color="rgb(74.812317%, 47.705078%, 3.691101%)" offset="0.59375"/><stop stop-opacity="1" stop-color="rgb(74.478149%, 47.453308%, 3.620911%)" offset="0.601562"/><stop stop-opacity="1" stop-color="rgb(74.145508%, 47.203064%, 3.55072%)" offset="0.609375"/><stop stop-opacity="1" stop-color="rgb(73.81134%, 46.951294%, 3.479004%)" offset="0.617188"/><stop stop-opacity="1" stop-color="rgb(73.478699%, 46.699524%, 3.408813%)" offset="0.625"/><stop stop-opacity="1" stop-color="rgb(73.144531%, 46.447754%, 3.338623%)" offset="0.632812"/><stop stop-opacity="1" stop-color="rgb(72.810364%, 46.195984%, 3.268433%)" offset="0.640625"/><stop stop-opacity="1" stop-color="rgb(72.477722%, 45.944214%, 3.198242%)" offset="0.648438"/><stop stop-opacity="1" stop-color="rgb(72.143555%, 45.692444%, 3.128052%)" offset="0.65625"/><stop stop-opacity="1" stop-color="rgb(71.809387%, 45.4422%, 3.057861%)" offset="0.664062"/><stop stop-opacity="1" stop-color="rgb(71.476746%, 45.19043%, 2.987671%)" offset="0.671875"/><stop stop-opacity="1" stop-color="rgb(71.142578%, 44.93866%, 2.91748%)" offset="0.679688"/><stop stop-opacity="1" stop-color="rgb(70.809937%, 44.68689%, 2.84729%)" offset="0.6875"/><stop stop-opacity="1" stop-color="rgb(70.475769%, 44.43512%, 2.7771%)" offset="0.695312"/><stop stop-opacity="1" stop-color="rgb(70.141602%, 44.18335%, 2.706909%)" offset="0.703125"/><stop stop-opacity="1" stop-color="rgb(69.80896%, 43.93158%, 2.635193%)" offset="0.710938"/><stop stop-opacity="1" stop-color="rgb(69.474792%, 43.681335%, 2.565002%)" offset="0.71875"/><stop stop-opacity="1" stop-color="rgb(69.140625%, 43.429565%, 2.494812%)" offset="0.726562"/><stop stop-opacity="1" stop-color="rgb(68.807983%, 43.177795%, 2.424622%)" offset="0.734375"/><stop stop-opacity="1" stop-color="rgb(68.473816%, 42.926025%, 2.354431%)" offset="0.742188"/><stop stop-opacity="1" stop-color="rgb(68.141174%, 42.674255%, 2.284241%)" offset="0.75"/><stop stop-opacity="1" stop-color="rgb(67.807007%, 42.422485%, 2.21405%)" offset="0.757812"/><stop stop-opacity="1" stop-color="rgb(67.472839%, 42.170715%, 2.14386%)" offset="0.765625"/><stop stop-opacity="1" stop-color="rgb(67.140198%, 41.918945%, 2.073669%)" offset="0.773438"/><stop stop-opacity="1" stop-color="rgb(66.80603%, 41.668701%, 2.003479%)" offset="0.78125"/><stop stop-opacity="1" stop-color="rgb(66.471863%, 41.416931%, 1.933289%)" offset="0.789062"/><stop stop-opacity="1" stop-color="rgb(66.139221%, 41.165161%, 1.863098%)" offset="0.796875"/><stop stop-opacity="1" stop-color="rgb(65.805054%, 40.913391%, 1.792908%)" offset="0.804688"/><stop stop-opacity="1" stop-color="rgb(65.472412%, 40.661621%, 1.721191%)" offset="0.8125"/><stop stop-opacity="1" stop-color="rgb(65.138245%, 40.409851%, 1.651001%)" offset="0.820312"/><stop stop-opacity="1" stop-color="rgb(64.804077%, 40.158081%, 1.580811%)" offset="0.828125"/><stop stop-opacity="1" stop-color="rgb(64.471436%, 39.907837%, 1.51062%)" offset="0.835938"/><stop stop-opacity="1" stop-color="rgb(64.137268%, 39.656067%, 1.44043%)" offset="0.84375"/><stop stop-opacity="1" stop-color="rgb(63.803101%, 39.404297%, 1.370239%)" offset="0.851562"/><stop stop-opacity="1" stop-color="rgb(63.470459%, 39.152527%, 1.300049%)" offset="0.859375"/><stop stop-opacity="1" stop-color="rgb(63.136292%, 38.900757%, 1.229858%)" offset="0.867188"/><stop stop-opacity="1" stop-color="rgb(62.80365%, 38.648987%, 1.159668%)" offset="0.875"/><stop stop-opacity="1" stop-color="rgb(62.469482%, 38.397217%, 1.089478%)" offset="0.882812"/><stop stop-opacity="1" stop-color="rgb(62.135315%, 38.146973%, 1.019287%)" offset="0.890625"/><stop stop-opacity="1" stop-color="rgb(61.802673%, 37.895203%, 0.949097%)" offset="0.898438"/><stop stop-opacity="1" stop-color="rgb(61.468506%, 37.643433%, 0.87738%)" offset="0.90625"/><stop stop-opacity="1" stop-color="rgb(61.134338%, 37.391663%, 0.80719%)" offset="0.914062"/><stop stop-opacity="1" stop-color="rgb(60.801697%, 37.139893%, 0.737%)" offset="0.921875"/><stop stop-opacity="1" stop-color="rgb(60.467529%, 36.888123%, 0.666809%)" offset="0.929688"/><stop stop-opacity="1" stop-color="rgb(60.134888%, 36.636353%, 0.596619%)" offset="0.9375"/><stop stop-opacity="1" stop-color="rgb(59.80072%, 36.384583%, 0.526428%)" offset="0.945312"/><stop stop-opacity="1" stop-color="rgb(59.466553%, 36.134338%, 0.456238%)" offset="0.953125"/><stop stop-opacity="1" stop-color="rgb(59.133911%, 35.882568%, 0.386047%)" offset="0.960938"/><stop stop-opacity="1" stop-color="rgb(58.799744%, 35.630798%, 0.315857%)" offset="0.96875"/><stop stop-opacity="1" stop-color="rgb(58.467102%, 35.379028%, 0.245667%)" offset="0.976562"/><stop stop-opacity="1" stop-color="rgb(58.132935%, 35.127258%, 0.175476%)" offset="0.984375"/><stop stop-opacity="1" stop-color="rgb(57.798767%, 34.875488%, 0.105286%)" offset="0.992188"/><stop stop-opacity="1" stop-color="rgb(57.466125%, 34.623718%, 0.0350952%)" offset="1"/></linearGradient><clipPath id="b713e324d7"><path d="M 52 53 L 323.925781 53 L 323.925781 319 L 52 319 Z M 52 53 " clip-rule="nonzero"/></clipPath></defs><g clip-path="url(#abf6e6b4d9)"><g clip-path="url(#c3a70d4a3e)"><path fill="url(#d824c311d3)" d="M 2.136719 0 L 2.136719 370.726562 L 372.863281 370.726562 L 372.863281 0 Z M 2.136719 0 " fill-rule="nonzero"/></g></g><g clip-path="url(#b713e324d7)"><path fill="#ffffff" d="M 323.925781 266.886719 C 323.929688 268.152344 323.875 269.414062 323.761719 270.671875 C 323.648438 271.933594 323.476562 273.183594 323.25 274.425781 C 323.019531 275.667969 322.734375 276.898438 322.390625 278.117188 C 322.046875 279.332031 321.644531 280.53125 321.191406 281.710938 C 320.734375 282.886719 320.226562 284.042969 319.664062 285.175781 C 319.101562 286.308594 318.488281 287.410156 317.824219 288.484375 C 317.15625 289.5625 316.441406 290.601562 315.679688 291.609375 C 314.917969 292.617188 314.113281 293.589844 313.257812 294.523438 C 312.40625 295.457031 311.511719 296.347656 310.578125 297.199219 C 309.640625 298.046875 308.667969 298.851562 307.65625 299.613281 C 306.648438 300.371094 305.601562 301.082031 304.527344 301.746094 C 303.449219 302.40625 302.34375 303.019531 301.210938 303.578125 C 300.078125 304.136719 298.921875 304.644531 297.742188 305.09375 C 296.558594 305.546875 295.363281 305.941406 294.144531 306.285156 C 292.925781 306.625 291.695312 306.90625 290.453125 307.132812 C 289.207031 307.359375 287.957031 307.527344 286.699219 307.636719 C 285.4375 307.746094 284.175781 307.796875 282.914062 307.789062 C 281.648438 307.78125 280.386719 307.714844 279.128906 307.585938 C 277.871094 307.460938 276.621094 307.277344 275.382812 307.039062 C 274.140625 306.796875 272.914062 306.496094 271.703125 306.140625 C 270.488281 305.785156 269.292969 305.375 268.121094 304.90625 C 266.945312 304.441406 265.792969 303.917969 264.667969 303.347656 C 263.542969 302.773438 262.445312 302.148438 261.378906 301.472656 C 260.308594 300.796875 259.273438 300.070312 258.273438 299.296875 C 257.273438 298.527344 256.308594 297.710938 255.386719 296.847656 C 254.460938 295.984375 253.578125 295.082031 252.738281 294.140625 C 251.898438 293.195312 251.101562 292.214844 250.351562 291.195312 C 249.601562 290.179688 248.902344 289.128906 248.25 288.042969 C 247.597656 286.960938 247 285.851562 246.449219 284.710938 C 245.902344 283.570312 245.410156 282.410156 244.96875 281.226562 C 244.527344 280.039062 244.144531 278.835938 243.816406 277.617188 C 243.488281 276.394531 243.21875 275.164062 243.003906 273.917969 C 242.789062 272.671875 242.636719 271.417969 242.539062 270.15625 C 242.441406 268.898438 242.402344 267.632812 242.425781 266.371094 C 242.445312 265.105469 242.523438 263.847656 242.660156 262.589844 C 242.800781 261.332031 242.996094 260.085938 243.25 258.847656 C 243.503906 257.609375 243.8125 256.386719 244.183594 255.175781 C 244.550781 253.96875 244.972656 252.777344 245.453125 251.609375 C 245.929688 250.4375 246.460938 249.292969 247.046875 248.171875 C 247.632812 247.050781 248.269531 245.960938 248.953125 244.898438 C 249.640625 243.835938 250.375 242.8125 251.15625 241.816406 C 251.941406 240.824219 252.765625 239.871094 253.636719 238.953125 C 254.507812 238.039062 255.421875 237.164062 256.371094 236.332031 C 257.324219 235.5 258.3125 234.714844 259.339844 233.976562 C 260.363281 233.238281 261.421875 232.546875 262.511719 231.90625 C 263.601562 231.265625 264.71875 230.679688 265.863281 230.140625 C 267.007812 229.605469 268.175781 229.121094 269.363281 228.691406 C 270.550781 228.265625 271.757812 227.894531 272.984375 227.578125 L 272.984375 131.046875 C 272.984375 130.488281 272.953125 129.933594 272.898438 129.382812 C 272.84375 128.828125 272.761719 128.277344 272.652344 127.734375 C 272.546875 127.1875 272.410156 126.648438 272.25 126.117188 C 272.085938 125.585938 271.898438 125.0625 271.6875 124.550781 C 271.472656 124.035156 271.234375 123.535156 270.972656 123.042969 C 270.710938 122.554688 270.425781 122.078125 270.117188 121.613281 C 269.808594 121.152344 269.476562 120.707031 269.125 120.277344 C 268.769531 119.847656 268.398438 119.4375 268.003906 119.042969 C 267.613281 118.648438 267.199219 118.277344 266.769531 117.921875 C 266.339844 117.570312 265.894531 117.238281 265.433594 116.929688 C 264.96875 116.621094 264.496094 116.335938 264.003906 116.074219 C 263.515625 115.8125 263.011719 115.574219 262.5 115.359375 C 261.984375 115.148438 261.460938 114.960938 260.929688 114.800781 C 260.398438 114.636719 259.859375 114.503906 259.3125 114.394531 C 258.769531 114.285156 258.21875 114.203125 257.667969 114.148438 C 257.113281 114.09375 256.558594 114.066406 256.003906 114.066406 L 226.253906 114.066406 L 249.617188 137.429688 C 250.117188 137.894531 250.566406 138.40625 250.964844 138.964844 C 251.363281 139.519531 251.699219 140.113281 251.980469 140.738281 C 252.257812 141.363281 252.46875 142.007812 252.617188 142.675781 C 252.765625 143.34375 252.847656 144.019531 252.859375 144.703125 C 252.871094 145.386719 252.816406 146.066406 252.691406 146.738281 C 252.566406 147.410156 252.375 148.066406 252.121094 148.699219 C 251.863281 149.332031 251.546875 149.9375 251.167969 150.507812 C 250.792969 151.078125 250.359375 151.605469 249.875 152.085938 C 249.394531 152.570312 248.867188 153.003906 248.296875 153.378906 C 247.726562 153.757812 247.121094 154.074219 246.488281 154.332031 C 245.855469 154.585938 245.199219 154.777344 244.527344 154.902344 C 243.855469 155.027344 243.175781 155.082031 242.492188 155.070312 C 241.808594 155.058594 241.132812 154.976562 240.464844 154.828125 C 239.796875 154.679688 239.152344 154.46875 238.527344 154.191406 C 237.902344 153.910156 237.308594 153.574219 236.753906 153.175781 C 236.195312 152.777344 235.683594 152.328125 235.21875 151.828125 L 194.464844 111.074219 C 193.992188 110.601562 193.570312 110.089844 193.199219 109.53125 C 192.828125 108.976562 192.511719 108.390625 192.257812 107.769531 C 192 107.152344 191.808594 106.515625 191.675781 105.859375 C 191.546875 105.203125 191.480469 104.542969 191.480469 103.871094 C 191.480469 103.203125 191.546875 102.539062 191.675781 101.886719 C 191.808594 101.230469 192 100.589844 192.257812 99.972656 C 192.511719 99.355469 192.828125 98.769531 193.199219 98.210938 C 193.570312 97.65625 193.992188 97.140625 194.464844 96.667969 L 235.21875 55.914062 C 235.695312 55.460938 236.210938 55.058594 236.765625 54.707031 C 237.324219 54.355469 237.90625 54.058594 238.519531 53.820312 C 239.132812 53.578125 239.761719 53.398438 240.410156 53.28125 C 241.054688 53.164062 241.707031 53.109375 242.367188 53.121094 C 243.023438 53.128906 243.675781 53.199219 244.320312 53.335938 C 244.960938 53.46875 245.585938 53.664062 246.191406 53.921875 C 246.800781 54.175781 247.375 54.488281 247.921875 54.855469 C 248.464844 55.222656 248.972656 55.640625 249.4375 56.105469 C 249.902344 56.570312 250.316406 57.074219 250.683594 57.621094 C 251.050781 58.167969 251.363281 58.742188 251.617188 59.347656 C 251.875 59.957031 252.070312 60.582031 252.203125 61.222656 C 252.339844 61.867188 252.410156 62.519531 252.417969 63.175781 C 252.425781 63.835938 252.371094 64.488281 252.253906 65.132812 C 252.136719 65.78125 251.957031 66.410156 251.714844 67.023438 C 251.476562 67.636719 251.179688 68.21875 250.828125 68.773438 C 250.472656 69.328125 250.070312 69.847656 249.617188 70.324219 L 226.253906 93.6875 L 256.003906 93.6875 C 257.226562 93.6875 258.445312 93.75 259.664062 93.871094 C 260.878906 93.992188 262.089844 94.171875 263.289062 94.414062 C 264.488281 94.652344 265.671875 94.949219 266.84375 95.304688 C 268.011719 95.660156 269.164062 96.074219 270.292969 96.542969 C 271.421875 97.011719 272.527344 97.535156 273.605469 98.109375 C 274.683594 98.6875 275.730469 99.316406 276.746094 99.996094 C 277.765625 100.675781 278.746094 101.402344 279.691406 102.179688 C 280.636719 102.957031 281.542969 103.777344 282.40625 104.640625 C 283.273438 105.503906 284.09375 106.410156 284.867188 107.355469 C 285.644531 108.300781 286.371094 109.28125 287.050781 110.300781 C 287.730469 111.316406 288.359375 112.363281 288.9375 113.441406 C 289.515625 114.519531 290.035156 115.625 290.503906 116.753906 C 290.972656 117.886719 291.386719 119.035156 291.742188 120.207031 C 292.097656 121.375 292.394531 122.558594 292.636719 123.757812 C 292.875 124.960938 293.054688 126.167969 293.175781 127.382812 C 293.296875 128.601562 293.359375 129.820312 293.359375 131.046875 L 293.359375 227.578125 C 294.441406 227.855469 295.511719 228.175781 296.566406 228.539062 C 297.621094 228.90625 298.660156 229.3125 299.683594 229.765625 C 300.703125 230.214844 301.707031 230.707031 302.6875 231.242188 C 303.667969 231.777344 304.628906 232.347656 305.5625 232.960938 C 306.496094 233.574219 307.402344 234.222656 308.285156 234.910156 C 309.164062 235.597656 310.015625 236.320312 310.835938 237.078125 C 311.65625 237.835938 312.445312 238.625 313.203125 239.449219 C 313.957031 240.273438 314.679688 241.125 315.363281 242.007812 C 316.050781 242.886719 316.699219 243.796875 317.308594 244.730469 C 317.917969 245.667969 318.492188 246.625 319.023438 247.609375 C 319.554688 248.589844 320.046875 249.59375 320.492188 250.617188 C 320.941406 251.640625 321.347656 252.679688 321.710938 253.734375 C 322.078125 254.792969 322.394531 255.863281 322.671875 256.945312 C 322.945312 258.027344 323.175781 259.117188 323.363281 260.21875 C 323.546875 261.324219 323.6875 262.429688 323.78125 263.542969 C 323.875 264.65625 323.921875 265.769531 323.925781 266.886719 Z M 140.941406 218.9375 C 140.464844 218.488281 139.949219 218.09375 139.394531 217.746094 C 138.839844 217.402344 138.257812 217.109375 137.644531 216.878906 C 137.035156 216.644531 136.410156 216.46875 135.765625 216.355469 C 135.121094 216.242188 134.472656 216.191406 133.816406 216.203125 C 133.164062 216.214844 132.519531 216.289062 131.878906 216.425781 C 131.238281 216.558594 130.617188 216.757812 130.015625 217.011719 C 129.414062 217.265625 128.84375 217.578125 128.300781 217.945312 C 127.757812 218.308594 127.257812 218.722656 126.792969 219.183594 C 126.332031 219.648438 125.917969 220.148438 125.550781 220.691406 C 125.1875 221.234375 124.875 221.804688 124.621094 222.40625 C 124.363281 223.007812 124.167969 223.628906 124.03125 224.269531 C 123.898438 224.910156 123.824219 225.554688 123.8125 226.210938 C 123.800781 226.863281 123.851562 227.511719 123.964844 228.15625 C 124.078125 228.800781 124.25 229.425781 124.484375 230.039062 C 124.71875 230.648438 125.007812 231.230469 125.355469 231.785156 C 125.703125 232.339844 126.097656 232.855469 126.542969 233.335938 L 149.910156 256.699219 L 120.160156 256.699219 C 119.601562 256.699219 119.046875 256.671875 118.496094 256.617188 C 117.941406 256.5625 117.394531 256.480469 116.847656 256.371094 C 116.300781 256.261719 115.765625 256.128906 115.230469 255.964844 C 114.699219 255.804688 114.175781 255.617188 113.664062 255.402344 C 113.148438 255.191406 112.648438 254.953125 112.15625 254.691406 C 111.667969 254.429688 111.191406 254.144531 110.730469 253.832031 C 110.265625 253.523438 109.820312 253.195312 109.390625 252.839844 C 108.960938 252.488281 108.550781 252.117188 108.15625 251.722656 C 107.761719 251.328125 107.390625 250.917969 107.039062 250.488281 C 106.683594 250.058594 106.355469 249.613281 106.046875 249.148438 C 105.734375 248.6875 105.449219 248.210938 105.1875 247.722656 C 104.925781 247.230469 104.6875 246.730469 104.476562 246.214844 C 104.261719 245.703125 104.074219 245.179688 103.914062 244.648438 C 103.75 244.113281 103.617188 243.578125 103.507812 243.03125 C 103.398438 242.484375 103.316406 241.9375 103.261719 241.382812 C 103.207031 240.832031 103.179688 240.277344 103.179688 239.71875 L 103.179688 143.1875 C 103.96875 142.984375 104.753906 142.753906 105.535156 142.503906 C 106.3125 142.253906 107.082031 141.976562 107.84375 141.679688 C 108.605469 141.382812 109.355469 141.058594 110.097656 140.71875 C 110.839844 140.375 111.574219 140.007812 112.292969 139.621094 C 113.011719 139.234375 113.722656 138.824219 114.417969 138.394531 C 115.113281 137.964844 115.792969 137.515625 116.464844 137.042969 C 117.132812 136.574219 117.785156 136.082031 118.425781 135.570312 C 119.0625 135.0625 119.6875 134.53125 120.292969 133.984375 C 120.902344 133.4375 121.492188 132.871094 122.0625 132.285156 C 122.636719 131.703125 123.191406 131.101562 123.730469 130.484375 C 124.265625 129.871094 124.785156 129.238281 125.28125 128.589844 C 125.78125 127.941406 126.261719 127.277344 126.71875 126.601562 C 127.179688 125.925781 127.617188 125.234375 128.035156 124.53125 C 128.453125 123.828125 128.847656 123.113281 129.222656 122.386719 C 129.597656 121.660156 129.949219 120.921875 130.277344 120.171875 C 130.609375 119.425781 130.917969 118.667969 131.199219 117.898438 C 131.484375 117.132812 131.746094 116.359375 131.984375 115.574219 C 132.222656 114.792969 132.433594 114.003906 132.625 113.210938 C 132.816406 112.414062 132.980469 111.613281 133.125 110.808594 C 133.265625 110.003906 133.382812 109.195312 133.476562 108.382812 C 133.570312 107.570312 133.640625 106.753906 133.683594 105.9375 C 133.726562 105.121094 133.746094 104.304688 133.742188 103.484375 C 133.738281 102.667969 133.707031 101.851562 133.65625 101.035156 C 133.601562 100.21875 133.523438 99.40625 133.417969 98.59375 C 133.316406 97.78125 133.1875 96.976562 133.035156 96.171875 C 132.886719 95.367188 132.710938 94.570312 132.507812 93.777344 C 132.308594 92.984375 132.085938 92.195312 131.839844 91.417969 C 131.59375 90.636719 131.320312 89.867188 131.027344 89.101562 C 130.734375 88.339844 130.417969 87.585938 130.078125 86.839844 C 129.742188 86.097656 129.378906 85.363281 128.996094 84.640625 C 128.613281 83.917969 128.210938 83.207031 127.785156 82.511719 C 127.359375 81.8125 126.910156 81.128906 126.445312 80.457031 C 125.976562 79.785156 125.492188 79.128906 124.984375 78.484375 C 124.476562 77.84375 123.953125 77.21875 123.40625 76.605469 C 122.863281 75.996094 122.300781 75.402344 121.722656 74.828125 C 121.140625 74.25 120.542969 73.691406 119.929688 73.152344 C 119.316406 72.609375 118.6875 72.089844 118.042969 71.585938 C 117.398438 71.082031 116.738281 70.601562 116.0625 70.136719 C 115.390625 69.675781 114.703125 69.230469 114 68.808594 C 113.300781 68.386719 112.589844 67.988281 111.863281 67.609375 C 111.136719 67.230469 110.402344 66.875 109.65625 66.539062 C 108.910156 66.207031 108.15625 65.894531 107.390625 65.605469 C 106.625 65.316406 105.851562 65.050781 105.070312 64.808594 C 104.289062 64.566406 103.5 64.347656 102.707031 64.152344 C 101.914062 63.957031 101.113281 63.785156 100.308594 63.636719 C 99.503906 63.492188 98.695312 63.371094 97.882812 63.269531 C 97.074219 63.171875 96.257812 63.097656 95.441406 63.050781 C 94.625 63 93.808594 62.976562 92.992188 62.976562 C 92.171875 62.976562 91.355469 63 90.539062 63.050781 C 89.722656 63.097656 88.910156 63.171875 88.097656 63.269531 C 87.285156 63.371094 86.476562 63.492188 85.671875 63.636719 C 84.867188 63.785156 84.066406 63.957031 83.273438 64.152344 C 82.480469 64.347656 81.691406 64.566406 80.910156 64.808594 C 80.128906 65.050781 79.355469 65.316406 78.59375 65.605469 C 77.828125 65.894531 77.070312 66.207031 76.324219 66.539062 C 75.578125 66.875 74.84375 67.230469 74.117188 67.609375 C 73.394531 67.988281 72.679688 68.386719 71.980469 68.808594 C 71.277344 69.230469 70.589844 69.675781 69.917969 70.136719 C 69.242188 70.601562 68.582031 71.082031 67.9375 71.585938 C 67.292969 72.089844 66.664062 72.609375 66.050781 73.152344 C 65.4375 73.691406 64.839844 74.25 64.261719 74.828125 C 63.679688 75.402344 63.117188 75.996094 62.574219 76.605469 C 62.027344 77.21875 61.503906 77.84375 60.996094 78.484375 C 60.492188 79.128906 60.003906 79.785156 59.535156 80.457031 C 59.070312 81.128906 58.625 81.8125 58.199219 82.511719 C 57.773438 83.207031 57.367188 83.917969 56.984375 84.640625 C 56.601562 85.363281 56.238281 86.097656 55.902344 86.839844 C 55.5625 87.585938 55.246094 88.339844 54.953125 89.101562 C 54.660156 89.867188 54.390625 90.636719 54.140625 91.417969 C 53.894531 92.195312 53.671875 92.984375 53.472656 93.777344 C 53.273438 94.570312 53.097656 95.367188 52.945312 96.171875 C 52.792969 96.976562 52.664062 97.78125 52.5625 98.59375 C 52.460938 99.40625 52.378906 100.21875 52.328125 101.035156 C 52.273438 101.851562 52.242188 102.667969 52.238281 103.484375 C 52.234375 104.304688 52.253906 105.121094 52.296875 105.9375 C 52.339844 106.753906 52.410156 107.570312 52.503906 108.382812 C 52.597656 109.195312 52.714844 110.003906 52.855469 110.808594 C 53 111.613281 53.164062 112.414062 53.355469 113.210938 C 53.546875 114.003906 53.761719 114.792969 53.996094 115.574219 C 54.234375 116.359375 54.496094 117.132812 54.78125 117.898438 C 55.066406 118.667969 55.371094 119.425781 55.703125 120.171875 C 56.03125 120.921875 56.382812 121.660156 56.757812 122.386719 C 57.132812 123.113281 57.527344 123.828125 57.945312 124.53125 C 58.363281 125.234375 58.800781 125.925781 59.261719 126.601562 C 59.71875 127.277344 60.199219 127.941406 60.699219 128.589844 C 61.195312 129.238281 61.714844 129.871094 62.25 130.484375 C 62.789062 131.101562 63.34375 131.703125 63.917969 132.285156 C 64.488281 132.871094 65.082031 133.4375 65.6875 133.984375 C 66.292969 134.53125 66.917969 135.0625 67.554688 135.570312 C 68.195312 136.082031 68.847656 136.574219 69.519531 137.042969 C 70.1875 137.515625 70.867188 137.964844 71.5625 138.394531 C 72.261719 138.824219 72.96875 139.234375 73.6875 139.621094 C 74.410156 140.007812 75.140625 140.375 75.882812 140.71875 C 76.625 141.058594 77.375 141.382812 78.136719 141.679688 C 78.898438 141.976562 79.667969 142.253906 80.449219 142.503906 C 81.226562 142.753906 82.011719 142.984375 82.800781 143.1875 L 82.800781 239.71875 C 82.804688 240.941406 82.863281 242.164062 82.984375 243.378906 C 83.105469 244.597656 83.285156 245.804688 83.527344 247.003906 C 83.765625 248.203125 84.0625 249.390625 84.417969 250.558594 C 84.773438 251.730469 85.1875 252.878906 85.65625 254.007812 C 86.125 255.140625 86.648438 256.242188 87.222656 257.320312 C 87.800781 258.402344 88.429688 259.449219 89.109375 260.464844 C 89.789062 261.480469 90.515625 262.464844 91.292969 263.410156 C 92.070312 264.355469 92.890625 265.257812 93.753906 266.125 C 94.621094 266.988281 95.523438 267.808594 96.46875 268.585938 C 97.414062 269.363281 98.398438 270.089844 99.414062 270.769531 C 100.429688 271.449219 101.476562 272.078125 102.558594 272.65625 C 103.636719 273.230469 104.738281 273.753906 105.871094 274.222656 C 107 274.691406 108.148438 275.105469 109.320312 275.460938 C 110.488281 275.816406 111.675781 276.113281 112.875 276.351562 C 114.074219 276.59375 115.28125 276.773438 116.5 276.894531 C 117.714844 277.015625 118.9375 277.074219 120.160156 277.078125 L 149.910156 277.078125 L 126.542969 300.441406 C 126.042969 300.90625 125.59375 301.417969 125.195312 301.976562 C 124.800781 302.535156 124.460938 303.125 124.183594 303.75 C 123.90625 304.375 123.691406 305.019531 123.542969 305.6875 C 123.394531 306.355469 123.316406 307.03125 123.304688 307.714844 C 123.289062 308.398438 123.347656 309.078125 123.472656 309.75 C 123.597656 310.421875 123.785156 311.078125 124.042969 311.710938 C 124.300781 312.34375 124.617188 312.949219 124.992188 313.519531 C 125.371094 314.089844 125.800781 314.617188 126.285156 315.097656 C 126.769531 315.582031 127.296875 316.015625 127.867188 316.390625 C 128.4375 316.769531 129.039062 317.085938 129.671875 317.34375 C 130.308594 317.597656 130.960938 317.789062 131.632812 317.914062 C 132.308594 318.039062 132.984375 318.09375 133.667969 318.082031 C 134.351562 318.070312 135.027344 317.988281 135.695312 317.839844 C 136.363281 317.695312 137.011719 317.480469 137.636719 317.203125 C 138.261719 316.921875 138.851562 316.585938 139.410156 316.1875 C 139.964844 315.789062 140.476562 315.339844 140.941406 314.839844 L 181.695312 274.089844 C 182.167969 273.613281 182.589844 273.101562 182.964844 272.542969 C 183.335938 271.988281 183.648438 271.402344 183.90625 270.78125 C 184.160156 270.164062 184.355469 269.527344 184.484375 268.871094 C 184.613281 268.214844 184.679688 267.554688 184.679688 266.882812 C 184.679688 266.214844 184.613281 265.554688 184.484375 264.898438 C 184.355469 264.242188 184.160156 263.605469 183.90625 262.984375 C 183.648438 262.367188 183.335938 261.78125 182.964844 261.222656 C 182.589844 260.667969 182.167969 260.152344 181.695312 259.679688 Z M 140.941406 218.9375 " fill-opacity="1" fill-rule="nonzero"/></g></svg>